# xmcd CD database file
#
# Track frame offsets:
#	150
#	18622
#	44625
#	71155
#	80890
#	103360
#	114145
#	127705
#	146375
#	179677
#	194865
#	207370
#
# Disc length: 3102 seconds
#
# Revision: 2
# Processed by: cddbd v1.5.1PL0 Copyright (c) Steve Scherf et al.
# Submitted via: CDex 1.51
#
DISCID=bc0c1c0c
DTITLE=五つの赤い風船 - フォーク・アルバム第一集
DYEAR=1995
DGENRE=Folk
TTITLE0=遠い世界に
TTITLE1=遠い空の彼方から
TTITLE2=血まみれの鳩
TTITLE3=もしもボクの背中に羽根が生えていたら
TTITLE4=一つのことば
TTITLE5=恋は風に乗って
TTITLE6=まぼろしのつばさと共に
TTITLE7=時計
TTITLE8=母の生まれた街
TTITLE9=まるで洪水のように
TTITLE10=青い空の彼方から
TTITLE11=おとぎ話を聞きたいの
EXTD=YEAR: 1995
EXTT0=
EXTT1=
EXTT2=
EXTT3=
EXTT4=
EXTT5=
EXTT6=
EXTT7=
EXTT8=
EXTT9=
EXTT10=
EXTT11=
PLAYORDER=
